<?xml version="1.0" encoding="UTF-8"?>
<svg width="23px" height="27px" viewBox="0 0 23 27" version="1.1" xmlns="http://www.w3.org/2000/svg" xmlns:xlink="http://www.w3.org/1999/xlink">
    <!-- Generator: Sketch 53 (72520) - https://sketchapp.com -->
    <title>file (5)</title>
    <desc>Created with Sketch.</desc>
    <g id="Page-1" stroke="none" stroke-width="1" fill="none" fill-rule="evenodd">
        <g id="Artboard" transform="translate(-1282.000000, -60.000000)" fill="#1FAD83" fill-rule="nonzero" stroke="#0CAE82" stroke-width="0.5">
            <g id="file-(5)" transform="translate(1283.000000, 61.000000)">
                <path d="M15.96875,9.16666667 L5.03125,9.16666667 C4.78975,9.16666667 4.59375,9.35291667 4.59375,9.58333333 C4.59375,9.81375 4.78975,10 5.03125,10 L15.96875,10 C16.21025,10 16.40625,9.81375 16.40625,9.58333333 C16.40625,9.35291667 16.21025,9.16666667 15.96875,9.16666667 Z" id="Path"></path>
                <path d="M5.03125,6.66666667 L9.40625,6.66666667 C9.64775,6.66666667 9.84375,6.48041667 9.84375,6.25 C9.84375,6.01958333 9.64775,5.83333333 9.40625,5.83333333 L5.03125,5.83333333 C4.78975,5.83333333 4.59375,6.01958333 4.59375,6.25 C4.59375,6.48041667 4.78975,6.66666667 5.03125,6.66666667 Z" id="Path"></path>
                <path d="M15.96875,12.5 L5.03125,12.5 C4.78975,12.5 4.59375,12.68625 4.59375,12.9166667 C4.59375,13.1470833 4.78975,13.3333333 5.03125,13.3333333 L15.96875,13.3333333 C16.21025,13.3333333 16.40625,13.1470833 16.40625,12.9166667 C16.40625,12.68625 16.21025,12.5 15.96875,12.5 Z" id="Path"></path>
                <path d="M15.96875,15.8333333 L5.03125,15.8333333 C4.78975,15.8333333 4.59375,16.0195833 4.59375,16.25 C4.59375,16.4804167 4.78975,16.6666667 5.03125,16.6666667 L15.96875,16.6666667 C16.21025,16.6666667 16.40625,16.4804167 16.40625,16.25 C16.40625,16.0195833 16.21025,15.8333333 15.96875,15.8333333 Z" id="Path"></path>
                <path d="M15.96875,19.1666667 L5.03125,19.1666667 C4.78975,19.1666667 4.59375,19.3529167 4.59375,19.5833333 C4.59375,19.81375 4.78975,20 5.03125,20 L15.96875,20 C16.21025,20 16.40625,19.81375 16.40625,19.5833333 C16.40625,19.3529167 16.21025,19.1666667 15.96875,19.1666667 Z" id="Path"></path>
                <path d="M14.399875,0 L0.21875,0 L0.21875,25 L20.78125,25 L20.78125,6.0775 L14.399875,0 Z M14.65625,1.4225 L19.287625,5.83333333 L14.65625,5.83333333 L14.65625,1.4225 Z M1.09375,24.1666667 L1.09375,0.833333333 L13.78125,0.833333333 L13.78125,6.66666667 L19.90625,6.66666667 L19.90625,24.1666667 L1.09375,24.1666667 Z" id="Shape"></path>
            </g>
        </g>
    </g>
</svg>