<?xml version="1.0" encoding="UTF-8"?>
<svg width="394px" height="263px" viewBox="0 0 394 263" version="1.1" xmlns="http://www.w3.org/2000/svg" xmlns:xlink="http://www.w3.org/1999/xlink">
    <!-- Generator: Sketch 53 (72520) - https://sketchapp.com -->
    <title>Group 4</title>
    <desc>Created with Sketch.</desc>
    <g id="Page-1" stroke="none" stroke-width="1" fill="none" fill-rule="evenodd">
        <g id="Artboard-Copy" transform="translate(-288.000000, -368.000000)">
            <g id="Group-5" transform="translate(200.000000, 179.000000)">
                <g id="Group-4" transform="translate(88.000000, 189.000000)">
                    <rect id="Rectangle" stroke="#E8E8E8" fill="#FFFFFF" x="0.5" y="0.5" width="393" height="262" rx="3"></rect>
                    <g id="Group-3" transform="translate(11.000000, 6.000000)">
                        <circle id="Oval" fill="#FF6E6E" cx="4" cy="4" r="4"></circle>
                        <circle id="Oval-Copy" fill="#FFDC6F" cx="15" cy="4" r="4"></circle>
                        <circle id="Oval-Copy-2" fill="#73E792" cx="26" cy="4" r="4"></circle>
                    </g>
                    <g id="Group-2" transform="translate(98.000000, 35.000000)">
                        <rect id="Rectangle" fill="#CFCFCF" x="0" y="35" width="154" height="6" rx="1"></rect>
                        <rect id="Rectangle-Copy-17" fill="#CFCFCF" x="77" y="0" width="44" height="6" rx="1"></rect>
                        <rect id="Rectangle-Copy-7" fill="#CFCFCF" x="0" y="71" width="180" height="6" rx="1"></rect>
                        <rect id="Rectangle-Copy-11" fill="#CFCFCF" x="0" y="107" width="104" height="6" rx="1"></rect>
                        <rect id="Rectangle-Copy-2" fill="#CFCFCF" x="0" y="47" width="121" height="6" rx="1"></rect>
                        <rect id="Rectangle-Copy-8" fill="#CFCFCF" x="45" y="83" width="115" height="6" rx="1"></rect>
                        <rect id="Rectangle-Copy-12" fill="#CFCFCF" x="0" y="119" width="121" height="6" rx="1"></rect>
                        <rect id="Rectangle-Copy-4" fill="#CFCFCF" x="0" y="59" width="61" height="6" rx="1"></rect>
                        <rect id="Rectangle-Copy-9" fill="#CFCFCF" x="0" y="95" width="61" height="6" rx="1"></rect>
                        <rect id="Rectangle-Copy-15" fill="#CFCFCF" x="0" y="83" width="39" height="6" rx="1"></rect>
                        <rect id="Rectangle-Copy-13" fill="#CFCFCF" x="0" y="131" width="61" height="6" rx="1"></rect>
                        <rect id="Rectangle-Copy-19" fill="#CFCFCF" x="0" y="143" width="103" height="6" rx="1"></rect>
                        <rect id="Rectangle-Copy-18" fill="#78E594" x="0" y="175" width="39" height="6" rx="1"></rect>
                        <rect id="Rectangle-Copy-16" fill="#CFCFCF" x="110" y="107" width="17" height="6" rx="1"></rect>
                        <rect id="Rectangle-Copy-5" fill="#CFCFCF" x="67" y="59" width="87" height="6" rx="1"></rect>
                        <rect id="Rectangle-Copy-10" fill="#CFCFCF" x="67" y="95" width="87" height="6" rx="1"></rect>
                        <rect id="Rectangle-Copy-14" fill="#CFCFCF" x="67" y="131" width="87" height="6" rx="1"></rect>
                        <rect id="Rectangle-Copy-6" fill="#CFCFCF" x="160" y="59" width="39" height="6" rx="1"></rect>
                        <rect id="Rectangle-Copy-3" fill="#CFCFCF" x="127" y="47" width="53" height="6" rx="1"></rect>
                    </g>
                </g>
            </g>
        </g>
    </g>
</svg>